<mxfile host="app.diagrams.net" modified="2020-11-23T01:08:40.608Z" agent="5.0 (Macintosh; Intel Mac OS X 10_15_7) AppleWebKit/537.36 (KHTML, like Gecko) Chrome/86.0.4240.198 Safari/537.36" etag="FzvTZiSZ2322O8ax8Z11" version="13.10.1" type="github">
  <diagram id="HUUU64FcO6op7Bl9Eiwq" name="ページ1">
    <mxGraphModel dx="946" dy="557" grid="1" gridSize="10" guides="1" tooltips="1" connect="1" arrows="1" fold="1" page="1" pageScale="1" pageWidth="827" pageHeight="1169" math="0" shadow="0">
      <root>
        <mxCell id="0" />
        <mxCell id="1" parent="0" />
        <mxCell id="qDy3qWTaDJLPhjR3Owi7-38" value="User" style="shape=table;startSize=30;container=1;collapsible=1;childLayout=tableLayout;fixedRows=1;rowLines=0;fontStyle=1;align=center;resizeLast=1;" vertex="1" parent="1">
          <mxGeometry x="50" y="30" width="140" height="160" as="geometry" />
        </mxCell>
        <mxCell id="qDy3qWTaDJLPhjR3Owi7-39" value="" style="shape=partialRectangle;collapsible=0;dropTarget=0;pointerEvents=0;fillColor=none;top=0;left=0;bottom=1;right=0;points=[[0,0.5],[1,0.5]];portConstraint=eastwest;" vertex="1" parent="qDy3qWTaDJLPhjR3Owi7-38">
          <mxGeometry y="30" width="140" height="30" as="geometry" />
        </mxCell>
        <mxCell id="qDy3qWTaDJLPhjR3Owi7-40" value="PK" style="shape=partialRectangle;connectable=0;fillColor=none;top=0;left=0;bottom=0;right=0;fontStyle=1;overflow=hidden;" vertex="1" parent="qDy3qWTaDJLPhjR3Owi7-39">
          <mxGeometry width="30" height="30" as="geometry" />
        </mxCell>
        <mxCell id="qDy3qWTaDJLPhjR3Owi7-41" value="UniqueID" style="shape=partialRectangle;connectable=0;fillColor=none;top=0;left=0;bottom=0;right=0;align=left;spacingLeft=6;fontStyle=5;overflow=hidden;" vertex="1" parent="qDy3qWTaDJLPhjR3Owi7-39">
          <mxGeometry x="30" width="110" height="30" as="geometry" />
        </mxCell>
        <mxCell id="qDy3qWTaDJLPhjR3Owi7-42" value="" style="shape=partialRectangle;collapsible=0;dropTarget=0;pointerEvents=0;fillColor=none;top=0;left=0;bottom=0;right=0;points=[[0,0.5],[1,0.5]];portConstraint=eastwest;" vertex="1" parent="qDy3qWTaDJLPhjR3Owi7-38">
          <mxGeometry y="60" width="140" height="30" as="geometry" />
        </mxCell>
        <mxCell id="qDy3qWTaDJLPhjR3Owi7-43" value="" style="shape=partialRectangle;connectable=0;fillColor=none;top=0;left=0;bottom=0;right=0;editable=1;overflow=hidden;" vertex="1" parent="qDy3qWTaDJLPhjR3Owi7-42">
          <mxGeometry width="30" height="30" as="geometry" />
        </mxCell>
        <mxCell id="qDy3qWTaDJLPhjR3Owi7-44" value="nickname" style="shape=partialRectangle;connectable=0;fillColor=none;top=0;left=0;bottom=0;right=0;align=left;spacingLeft=6;overflow=hidden;" vertex="1" parent="qDy3qWTaDJLPhjR3Owi7-42">
          <mxGeometry x="30" width="110" height="30" as="geometry" />
        </mxCell>
        <mxCell id="qDy3qWTaDJLPhjR3Owi7-45" value="" style="shape=partialRectangle;collapsible=0;dropTarget=0;pointerEvents=0;fillColor=none;top=0;left=0;bottom=0;right=0;points=[[0,0.5],[1,0.5]];portConstraint=eastwest;" vertex="1" parent="qDy3qWTaDJLPhjR3Owi7-38">
          <mxGeometry y="90" width="140" height="30" as="geometry" />
        </mxCell>
        <mxCell id="qDy3qWTaDJLPhjR3Owi7-46" value="" style="shape=partialRectangle;connectable=0;fillColor=none;top=0;left=0;bottom=0;right=0;editable=1;overflow=hidden;" vertex="1" parent="qDy3qWTaDJLPhjR3Owi7-45">
          <mxGeometry width="30" height="30" as="geometry" />
        </mxCell>
        <mxCell id="qDy3qWTaDJLPhjR3Owi7-47" value="email" style="shape=partialRectangle;connectable=0;fillColor=none;top=0;left=0;bottom=0;right=0;align=left;spacingLeft=6;overflow=hidden;" vertex="1" parent="qDy3qWTaDJLPhjR3Owi7-45">
          <mxGeometry x="30" width="110" height="30" as="geometry" />
        </mxCell>
        <mxCell id="qDy3qWTaDJLPhjR3Owi7-48" value="" style="shape=partialRectangle;collapsible=0;dropTarget=0;pointerEvents=0;fillColor=none;top=0;left=0;bottom=0;right=0;points=[[0,0.5],[1,0.5]];portConstraint=eastwest;" vertex="1" parent="qDy3qWTaDJLPhjR3Owi7-38">
          <mxGeometry y="120" width="140" height="30" as="geometry" />
        </mxCell>
        <mxCell id="qDy3qWTaDJLPhjR3Owi7-49" value="" style="shape=partialRectangle;connectable=0;fillColor=none;top=0;left=0;bottom=0;right=0;editable=1;overflow=hidden;" vertex="1" parent="qDy3qWTaDJLPhjR3Owi7-48">
          <mxGeometry width="30" height="30" as="geometry" />
        </mxCell>
        <mxCell id="qDy3qWTaDJLPhjR3Owi7-50" value="password" style="shape=partialRectangle;connectable=0;fillColor=none;top=0;left=0;bottom=0;right=0;align=left;spacingLeft=6;overflow=hidden;" vertex="1" parent="qDy3qWTaDJLPhjR3Owi7-48">
          <mxGeometry x="30" width="110" height="30" as="geometry" />
        </mxCell>
      </root>
    </mxGraphModel>
  </diagram>
</mxfile>
